<svg xmlns="http://www.w3.org/2000/svg" xmlns:xlink="http://www.w3.org/1999/xlink" xmlns:serif="http://www.serif.com/" viewBox="0 0 32 40" version="1.1" xml:space="preserve" style="" x="0px" y="0px" fill-rule="evenodd" clip-rule="evenodd" stroke-linejoin="round" stroke-miterlimit="2"><g transform="matrix(1,0,0,1,-141,-225)"><g serif:id="Share Screen" transform="matrix(1,0,0,1,140.771,224.975)"><rect x="0" y="0" width="32" height="32" style="" fill="none"/><g transform="matrix(1,0,0,1,-140.771,-224.975)"><path d="M149.771,248.975L145.771,248.975C144.114,248.975 142.771,247.632 142.771,245.975C142.771,242.704 142.771,236.247 142.771,232.975C142.771,231.318 144.114,229.975 145.771,229.975C150.614,229.975 162.928,229.975 167.771,229.975C169.428,229.975 170.771,231.318 170.771,232.975L170.771,245.975C170.771,247.632 169.428,248.975 167.771,248.975L163.771,248.975L163.771,249.755C163.771,250.981 162.777,251.975 161.55,251.975L151.992,251.975C150.765,251.975 149.771,250.981 149.771,249.755L149.771,248.975ZM151.771,248.975L151.771,249.755C151.771,249.876 151.87,249.975 151.992,249.975L161.55,249.975C161.672,249.975 161.771,249.876 161.771,249.755L161.771,248.975L151.771,248.975ZM168.771,232.975L168.771,245.975C168.771,246.528 168.323,246.975 167.771,246.975C162.928,246.975 150.614,246.975 145.771,246.975C145.219,246.975 144.771,246.528 144.771,245.975C144.771,242.704 144.771,236.247 144.771,232.975C144.771,232.423 145.219,231.975 145.771,231.975C150.614,231.975 162.928,231.975 167.771,231.975C168.323,231.975 168.771,232.423 168.771,232.975ZM155.771,238.39L154.65,239.511C154.26,239.901 153.626,239.901 153.236,239.511C152.845,239.121 152.845,238.487 153.236,238.097L156.064,235.268C156.455,234.878 157.088,234.878 157.478,235.268L160.307,238.097C160.697,238.487 160.697,239.121 160.307,239.511C159.916,239.901 159.283,239.901 158.892,239.511L157.771,238.39L157.771,242.975C157.771,243.527 157.323,243.975 156.771,243.975C156.219,243.975 155.771,243.527 155.771,242.975L155.771,238.39Z"/></g></g></g><text x="0" y="47" fill="#000000" font-size="5px" font-weight="bold" font-family="'Helvetica Neue', Helvetica, Arial-Unicode, Arial, Sans-serif">Created by mpanicon</text><text x="0" y="52" fill="#000000" font-size="5px" font-weight="bold" font-family="'Helvetica Neue', Helvetica, Arial-Unicode, Arial, Sans-serif">from the Noun Project</text></svg>